<svg xmlns="http://www.w3.org/2000/svg" xmlns:xlink="http://www.w3.org/1999/xlink" width="1890" zoomAndPan="magnify" viewBox="0 0 1417.5 567.000005" height="756" preserveAspectRatio="xMidYMid meet" version="1.0"><defs><clipPath id="cc5500671a"><path d="M 18 85 L 1416.003906 85 L 1416.003906 480 L 18 480 Z M 18 85 " clip-rule="nonzero"/></clipPath><clipPath id="4536ffe44a"><path d="M 0.355469 3 L 1398.003906 3 L 1398.003906 392 L 0.355469 392 Z M 0.355469 3 " clip-rule="nonzero"/></clipPath><clipPath id="b9624e47fa"><rect x="0" width="1399" y="0" height="395"/></clipPath></defs><g clip-path="url(#cc5500671a)"><g transform="matrix(1, 0, 0, 1, 18, 85)"><g clip-path="url(#b9624e47fa)"><g clip-path="url(#4536ffe44a)"><path fill="#ffffff" d="M 2786.667969 188.765625 L 1679.4375 188.765625 L 1604.78125 114.113281 L 2694.089844 114.113281 C 2699.039062 114.113281 2703.050781 110.101562 2703.050781 105.148438 C 2703.050781 100.199219 2699.039062 96.1875 2694.089844 96.1875 C 1500.421875 96.1875 1582.042969 95.570312 1578.847656 97.332031 C 1577.085938 98.304688 1581.335938 94.289062 1536.859375 138.765625 L 1404.328125 6.234375 C 1400.96875 2.875 1395.015625 2.875 1391.65625 6.234375 L 1259.121094 138.765625 C 1215.679688 95.320312 1218.59375 97.84375 1216.261719 96.875 C 1213.65625 95.804688 1264.066406 96.1875 101.894531 96.1875 C 96.945312 96.1875 92.933594 100.199219 92.933594 105.148438 C 92.933594 110.101562 96.945312 114.113281 101.894531 114.113281 L 1191.199219 114.113281 L 1116.546875 188.765625 L 9.316406 188.765625 C 4.367188 188.765625 0.355469 192.777344 0.355469 197.726562 C 0.355469 202.675781 4.367188 206.6875 9.316406 206.6875 L 1116.546875 206.6875 L 1191.203125 281.347656 L 101.894531 281.347656 C 96.945312 281.347656 92.933594 285.359375 92.933594 290.308594 C 92.933594 295.257812 96.945312 299.269531 101.894531 299.269531 C 1263.09375 299.269531 1214.292969 300.113281 1217.816406 297.753906 C 1218.890625 297.035156 1215.660156 300.15625 1259.125 256.691406 L 1391.65625 389.222656 C 1395.148438 392.714844 1400.824219 392.726562 1404.328125 389.222656 L 1536.859375 256.691406 C 1578.613281 298.445312 1577.730469 298.367188 1581.375 299.089844 C 1582.75 299.371094 1531.242188 299.269531 2694.089844 299.269531 C 2699.039062 299.269531 2703.050781 295.257812 2703.050781 290.308594 C 2703.050781 285.359375 2699.039062 281.347656 2694.089844 281.347656 L 1604.78125 281.347656 L 1679.4375 206.6875 L 2786.667969 206.6875 C 2791.617188 206.6875 2795.628906 202.675781 2795.628906 197.726562 C 2795.628906 192.777344 2791.617188 188.765625 2786.667969 188.765625 Z M 1212.835938 277.636719 L 1132.929688 197.726562 L 1212.835938 117.824219 L 1246.449219 151.4375 L 1206.5 191.390625 C 1202.996094 194.890625 1202.996094 200.5625 1206.5 204.0625 L 1246.453125 244.015625 Z M 1259.125 164.113281 L 1292.738281 197.726562 L 1259.125 231.34375 L 1225.507812 197.726562 Z M 1397.992188 370.210938 L 1271.796875 244.015625 L 1311.75 204.0625 C 1315.253906 200.5625 1315.246094 194.882812 1311.75 191.390625 L 1271.796875 151.4375 L 1397.992188 25.242188 L 1524.1875 151.4375 L 1484.234375 191.390625 C 1480.734375 194.890625 1480.734375 200.5625 1484.234375 204.0625 L 1524.1875 244.015625 Z M 1536.859375 164.113281 L 1570.472656 197.726562 L 1536.859375 231.34375 L 1503.246094 197.726562 Z M 1583.148438 277.636719 L 1549.53125 244.015625 L 1589.484375 204.0625 C 1592.984375 200.5625 1592.984375 194.890625 1589.484375 191.390625 L 1549.53125 151.4375 L 1583.148438 117.824219 L 1663.050781 197.726562 Z M 1583.148438 277.636719 " fill-opacity="1" fill-rule="nonzero"/></g></g></g></g></svg>