<svg xmlns="http://www.w3.org/2000/svg" xmlns:xlink="http://www.w3.org/1999/xlink" width="1080" zoomAndPan="magnify" viewBox="0 0 810 809.999993" height="1080" preserveAspectRatio="xMidYMid meet" version="1.0"><defs><g/><clipPath id="6927fc9edc"><path d="M 16 16 L 794 16 L 794 794 L 16 794 Z M 16 16 " clip-rule="nonzero"/></clipPath><clipPath id="c15cc36369"><path d="M 404.996094 16.28125 L 793.726562 405.011719 L 404.996094 793.742188 L 16.261719 405.011719 Z M 404.996094 16.28125 " clip-rule="nonzero"/></clipPath><clipPath id="879a3c61f7"><path d="M 404.996094 16.28125 L 793.726562 405.011719 L 404.996094 793.742188 L 16.261719 405.011719 Z M 404.996094 16.28125 " clip-rule="nonzero"/></clipPath><clipPath id="8d10afc319"><path d="M 16 16 L 794 16 L 794 794 L 16 794 Z M 16 16 " clip-rule="nonzero"/></clipPath><clipPath id="fa70f283dd"><path d="M 404.996094 16.28125 L 793.726562 405.011719 L 404.996094 793.742188 L 16.261719 405.011719 Z M 404.996094 16.28125 " clip-rule="nonzero"/></clipPath><clipPath id="3e0c9fc70e"><path d="M 404.996094 16.28125 L 793.710938 404.996094 L 404.996094 793.710938 L 16.28125 404.996094 Z M 404.996094 16.28125 " clip-rule="nonzero"/></clipPath><clipPath id="392286a91d"><path d="M 404.996094 16.28125 L 793.710938 404.996094 L 404.996094 793.710938 L 16.28125 404.996094 Z M 404.996094 16.28125 " clip-rule="nonzero"/></clipPath></defs><g clip-path="url(#6927fc9edc)"><g clip-path="url(#c15cc36369)"><g clip-path="url(#879a3c61f7)"><path fill="#ffffff" d="M 406.453125 758.824219 L 422.699219 758.824219 L 546.140625 635.382812 L 546.140625 641.191406 L 430.257812 757.070312 L 431.335938 758.148438 L 547.660156 641.820312 L 547.660156 633.863281 L 633.863281 547.660156 L 641.820312 547.660156 L 758.148438 431.332031 L 757.070312 430.257812 L 641.191406 546.140625 L 635.386719 546.140625 L 758.824219 422.699219 L 758.824219 406.453125 L 774.808594 414.445312 L 793.710938 404.996094 L 774.808594 395.546875 L 758.824219 403.539062 L 758.824219 387.289062 L 646.664062 275.128906 L 635.382812 263.851562 L 641.191406 263.851562 L 757.070312 379.730469 L 758.148438 378.65625 L 641.820312 262.328125 L 633.863281 262.328125 L 547.660156 176.125 L 547.660156 168.171875 L 431.335938 51.84375 L 430.257812 52.917969 L 546.140625 168.800781 L 546.140625 174.605469 L 422.699219 51.164062 L 406.453125 51.164062 L 414.445312 35.179688 L 404.996094 16.28125 L 395.546875 35.179688 L 403.539062 51.164062 L 387.289062 51.164062 L 263.851562 174.605469 L 263.851562 168.800781 L 379.730469 52.917969 L 378.65625 51.84375 L 262.328125 168.171875 L 262.328125 176.125 L 176.675781 261.777344 L 168.464844 261.605469 L 138.132812 291.9375 L 51.84375 378.65625 L 52.921875 379.730469 L 139.207031 293.011719 L 169.082031 263.140625 L 175.1875 263.269531 L 51.164062 387.289062 L 51.164062 403.539062 L 35.179688 395.546875 L 16.28125 404.996094 L 35.179688 414.445312 L 51.164062 406.453125 L 51.164062 422.699219 L 174.605469 546.140625 L 168.800781 546.140625 L 52.917969 430.257812 L 51.84375 431.332031 L 168.171875 547.660156 L 176.125 547.660156 L 262.328125 633.863281 L 262.328125 641.820312 L 378.65625 758.148438 L 379.730469 757.070312 L 263.851562 641.191406 L 263.851562 635.382812 L 275.128906 646.664062 L 387.292969 758.824219 L 403.539062 758.824219 L 395.546875 774.808594 L 404.996094 793.710938 L 414.445312 774.808594 Z M 421.691406 756.394531 L 407.933594 756.394531 L 414.101562 750.226562 L 427.859375 750.226562 Z M 430.292969 747.792969 L 416.53125 747.792969 L 422.699219 741.625 L 436.460938 741.625 Z M 438.894531 739.191406 L 425.132812 739.191406 L 431.300781 733.023438 L 445.0625 733.023438 Z M 447.492188 730.59375 L 433.734375 730.59375 L 439.902344 724.425781 L 453.660156 724.425781 Z M 456.09375 721.992188 L 442.332031 721.992188 L 448.5 715.824219 L 462.261719 715.824219 Z M 464.695312 713.390625 L 450.933594 713.390625 L 457.101562 707.222656 L 470.863281 707.222656 Z M 473.292969 704.792969 L 459.535156 704.792969 L 465.703125 698.625 L 479.460938 698.625 Z M 481.894531 696.191406 L 468.132812 696.191406 L 474.300781 690.023438 L 488.0625 690.023438 Z M 554.285156 600.792969 L 554.285156 623.800781 L 547.660156 630.425781 L 547.660156 607.417969 Z M 584.386719 584.386719 L 584.386719 593.699219 L 578.21875 599.867188 L 578.21875 578.21875 L 599.867188 578.21875 L 593.699219 584.386719 Z M 591.265625 586.820312 L 586.820312 591.265625 L 586.820312 586.820312 Z M 579.292969 575.785156 L 598.503906 556.578125 L 598.503906 556.71875 L 621.367188 556.71875 L 602.300781 575.785156 Z M 575.785156 602.300781 L 556.71875 621.367188 L 556.71875 598.503906 L 556.578125 598.503906 L 575.785156 579.292969 Z M 623.800781 554.285156 L 600.792969 554.285156 L 607.417969 547.660156 L 630.425781 547.660156 Z M 739.191406 438.894531 L 733.023438 445.0625 L 733.023438 431.300781 L 739.191406 425.132812 Z M 741.625 422.699219 L 747.792969 416.53125 L 747.792969 430.292969 L 741.625 436.460938 Z M 730.59375 447.492188 L 724.425781 453.660156 L 724.425781 439.902344 L 730.59375 433.734375 Z M 721.992188 456.09375 L 715.824219 462.261719 L 715.824219 448.5 L 721.992188 442.332031 Z M 713.390625 464.695312 L 707.222656 470.863281 L 707.222656 457.101562 L 713.390625 450.933594 Z M 704.792969 473.292969 L 698.625 479.460938 L 698.625 465.703125 L 704.792969 459.535156 Z M 696.191406 481.894531 L 690.023438 488.0625 L 690.023438 474.300781 L 696.191406 468.132812 Z M 750.226562 427.859375 L 750.226562 414.097656 L 756.394531 407.933594 L 756.394531 421.691406 Z M 774.808594 412.746094 L 760.828125 405.753906 L 788.789062 405.753906 Z M 774.808594 397.246094 L 788.792969 404.234375 L 760.828125 404.234375 Z M 756.394531 388.296875 L 756.394531 402.058594 L 750.226562 395.890625 L 750.226562 382.128906 Z M 747.792969 379.699219 L 747.792969 393.457031 L 741.625 387.289062 L 741.625 373.53125 Z M 739.191406 371.097656 L 739.191406 384.859375 L 733.023438 378.691406 L 733.023438 364.929688 Z M 730.59375 362.496094 L 730.59375 376.257812 L 724.425781 370.089844 L 724.425781 356.328125 Z M 721.992188 353.898438 L 721.992188 367.65625 L 715.824219 361.488281 L 715.824219 347.730469 Z M 713.390625 345.296875 L 713.390625 359.058594 L 707.222656 352.890625 L 707.222656 339.128906 Z M 704.792969 336.695312 L 704.792969 350.457031 L 698.625 344.289062 L 698.625 330.527344 Z M 696.191406 328.097656 L 696.191406 341.855469 L 690.023438 335.6875 L 690.023438 321.929688 Z M 630.425781 262.328125 L 607.417969 262.328125 L 600.792969 255.707031 L 623.800781 255.707031 Z M 621.367188 253.273438 L 598.503906 253.273438 L 598.503906 253.414062 L 579.292969 234.203125 L 602.300781 234.203125 Z M 591.265625 223.171875 L 586.820312 223.171875 L 586.820312 218.722656 Z M 584.386719 216.292969 L 584.386719 225.605469 L 593.699219 225.605469 L 599.867188 231.773438 L 578.21875 231.773438 L 578.21875 210.125 Z M 575.785156 207.691406 L 575.785156 230.695312 L 556.578125 211.488281 L 556.71875 211.488281 L 556.71875 188.621094 Z M 554.285156 186.191406 L 554.285156 209.195312 L 547.660156 202.574219 L 547.660156 179.566406 Z M 488.0625 119.96875 L 474.300781 119.96875 L 468.132812 113.800781 L 481.894531 113.800781 Z M 479.460938 111.367188 L 465.703125 111.367188 L 459.535156 105.199219 L 473.292969 105.199219 Z M 470.863281 102.765625 L 457.101562 102.765625 L 450.933594 96.597656 L 464.695312 96.597656 Z M 462.261719 94.167969 L 448.5 94.167969 L 442.332031 88 L 456.09375 88 Z M 453.660156 85.566406 L 439.902344 85.566406 L 433.734375 79.398438 L 447.492188 79.398438 Z M 445.0625 76.964844 L 431.300781 76.964844 L 425.132812 70.796875 L 438.894531 70.796875 Z M 436.460938 68.367188 L 422.699219 68.367188 L 416.53125 62.199219 L 430.292969 62.199219 Z M 421.691406 53.597656 L 427.859375 59.765625 L 414.101562 59.765625 L 407.933594 53.597656 Z M 412.746094 35.179688 L 405.753906 49.160156 L 405.753906 21.199219 Z M 397.246094 35.179688 L 404.234375 21.199219 L 404.234375 49.160156 Z M 388.296875 53.597656 L 402.058594 53.597656 L 395.890625 59.765625 L 382.128906 59.765625 Z M 379.699219 62.199219 L 393.457031 62.199219 L 387.289062 68.367188 L 373.53125 68.367188 Z M 371.097656 70.796875 L 384.859375 70.796875 L 378.691406 76.964844 L 364.929688 76.964844 Z M 362.496094 79.398438 L 376.257812 79.398438 L 370.089844 85.566406 L 356.328125 85.566406 Z M 353.898438 88 L 367.65625 88 L 361.488281 94.167969 L 347.730469 94.167969 Z M 345.296875 96.597656 L 359.058594 96.597656 L 352.890625 102.765625 L 339.128906 102.765625 Z M 336.695312 105.199219 L 350.457031 105.199219 L 344.289062 111.367188 L 330.527344 111.367188 Z M 328.097656 113.800781 L 341.855469 113.800781 L 335.6875 119.96875 L 321.929688 119.96875 Z M 255.707031 209.195312 L 255.707031 186.191406 L 262.328125 179.566406 L 262.328125 202.574219 Z M 225.605469 225.605469 L 225.605469 216.292969 L 231.773438 210.125 L 231.773438 231.773438 L 210.125 231.773438 L 216.292969 225.605469 Z M 218.722656 223.171875 L 223.171875 218.722656 L 223.171875 223.171875 Z M 230.695312 234.203125 L 211.488281 253.414062 L 211.488281 253.273438 L 188.621094 253.273438 L 207.691406 234.203125 Z M 234.203125 207.691406 L 253.273438 188.621094 L 253.273438 211.488281 L 253.414062 211.488281 L 234.203125 230.695312 Z M 186.191406 255.707031 L 209.195312 255.707031 L 202.578125 262.324219 L 180.046875 261.847656 Z M 70.796875 371.097656 L 76.964844 364.929688 L 76.964844 378.691406 L 70.796875 384.859375 Z M 68.367188 387.289062 L 62.199219 393.457031 L 62.199219 379.699219 L 68.367188 373.53125 Z M 79.398438 362.496094 L 85.566406 356.328125 L 85.566406 370.089844 L 79.398438 376.257812 Z M 88 353.898438 L 94.167969 347.730469 L 94.167969 361.488281 L 88 367.65625 Z M 96.597656 345.296875 L 102.765625 339.128906 L 102.765625 352.890625 L 96.597656 359.058594 Z M 105.199219 336.695312 L 111.367188 330.527344 L 111.367188 344.289062 L 105.199219 350.457031 Z M 113.800781 328.097656 L 119.96875 321.929688 L 119.96875 335.6875 L 113.800781 341.855469 Z M 59.765625 382.128906 L 59.765625 395.890625 L 53.597656 402.058594 L 53.597656 388.296875 Z M 35.179688 397.246094 L 49.160156 404.234375 L 21.199219 404.234375 Z M 35.179688 412.746094 L 21.199219 405.753906 L 49.160156 405.753906 Z M 53.597656 421.691406 L 53.597656 407.933594 L 59.765625 414.101562 L 59.765625 427.859375 Z M 62.199219 430.292969 L 62.199219 416.53125 L 68.367188 422.699219 L 68.367188 436.460938 Z M 70.796875 438.894531 L 70.796875 425.132812 L 76.964844 431.300781 L 76.964844 445.0625 Z M 79.398438 447.492188 L 79.398438 433.734375 L 85.566406 439.902344 L 85.566406 453.660156 Z M 88 456.09375 L 88 442.332031 L 94.167969 448.5 L 94.167969 462.261719 Z M 96.597656 464.695312 L 96.597656 450.933594 L 102.765625 457.101562 L 102.765625 470.863281 Z M 105.199219 473.292969 L 105.199219 459.535156 L 111.367188 465.703125 L 111.367188 479.460938 Z M 113.800781 481.894531 L 113.800781 468.132812 L 119.96875 474.300781 L 119.96875 488.0625 Z M 179.566406 547.660156 L 202.574219 547.660156 L 209.195312 554.285156 L 186.191406 554.285156 Z M 188.621094 556.71875 L 211.488281 556.71875 L 211.488281 556.578125 L 230.695312 575.785156 L 207.691406 575.785156 Z M 218.722656 586.820312 L 223.171875 586.820312 L 223.171875 591.265625 Z M 225.605469 593.699219 L 225.605469 584.386719 L 216.292969 584.386719 L 210.125 578.21875 L 231.773438 578.21875 L 231.773438 599.867188 Z M 234.203125 602.300781 L 234.203125 579.292969 L 253.414062 598.503906 L 253.273438 598.503906 L 253.273438 621.367188 Z M 255.707031 623.800781 L 255.707031 600.792969 L 262.328125 607.417969 L 262.328125 630.425781 Z M 321.929688 690.023438 L 335.6875 690.023438 L 341.855469 696.191406 L 328.097656 696.191406 Z M 330.527344 698.625 L 344.289062 698.625 L 350.457031 704.792969 L 336.695312 704.792969 Z M 339.128906 707.222656 L 352.890625 707.222656 L 359.058594 713.390625 L 345.296875 713.390625 Z M 347.730469 715.824219 L 361.488281 715.824219 L 367.65625 721.992188 L 353.898438 721.992188 Z M 356.328125 724.425781 L 370.089844 724.425781 L 376.257812 730.59375 L 362.496094 730.59375 Z M 364.929688 733.023438 L 378.691406 733.023438 L 384.859375 739.191406 L 371.097656 739.191406 Z M 373.53125 741.625 L 387.289062 741.625 L 393.457031 747.792969 L 379.699219 747.792969 Z M 388.296875 756.394531 L 382.128906 750.226562 L 395.890625 750.226562 L 402.058594 756.394531 Z M 404.996094 755.890625 L 336.695312 687.589844 L 319.496094 687.589844 L 263.851562 631.945312 L 263.851562 606.789062 L 255.707031 598.644531 L 255.707031 598.503906 L 255.566406 598.503906 L 234.203125 577.144531 L 234.203125 575.785156 L 232.847656 575.785156 L 211.488281 554.425781 L 211.488281 554.285156 L 211.347656 554.285156 L 203.203125 546.140625 L 178.046875 546.140625 L 165.046875 533.140625 L 122.398438 490.496094 L 122.402344 473.292969 L 54.101562 404.996094 L 122.402344 336.695312 L 122.398438 319.496094 L 178.558594 263.339844 L 203.195312 263.855469 L 211.347656 255.707031 L 211.488281 255.707031 L 211.488281 255.5625 L 232.847656 234.203125 L 234.203125 234.203125 L 234.203125 232.847656 L 255.566406 211.488281 L 255.707031 211.488281 L 255.707031 211.347656 L 263.851562 203.203125 L 263.851562 178.046875 L 319.496094 122.398438 L 336.695312 122.398438 L 404.996094 54.101562 L 473.292969 122.402344 L 490.496094 122.398438 L 533.140625 165.046875 L 546.140625 178.046875 L 546.140625 203.203125 L 554.285156 211.347656 L 554.285156 211.488281 L 554.425781 211.488281 L 575.785156 232.847656 L 575.785156 234.203125 L 577.144531 234.203125 L 598.503906 255.5625 L 598.503906 255.707031 L 598.644531 255.707031 L 606.789062 263.851562 L 631.945312 263.851562 L 687.589844 319.496094 L 687.589844 336.695312 L 755.890625 404.996094 L 687.589844 473.292969 L 687.589844 490.496094 L 631.945312 546.140625 L 606.789062 546.140625 L 598.644531 554.285156 L 598.503906 554.285156 L 598.503906 554.425781 L 577.144531 575.785156 L 575.785156 575.785156 L 575.785156 577.144531 L 554.425781 598.503906 L 554.285156 598.503906 L 554.285156 598.644531 L 546.140625 606.789062 L 546.140625 631.945312 L 490.496094 687.589844 L 473.292969 687.589844 Z M 397.246094 774.808594 L 404.234375 760.828125 L 404.234375 788.789062 Z M 405.753906 760.828125 L 412.746094 774.808594 L 405.753906 788.789062 Z M 405.753906 760.828125 " fill-opacity="1" fill-rule="nonzero"/></g></g></g><g clip-path="url(#8d10afc319)"><g clip-path="url(#fa70f283dd)"><g clip-path="url(#3e0c9fc70e)"><g clip-path="url(#392286a91d)"><path stroke-linecap="butt" transform="matrix(0.53033, 0.53033, -0.53033, 0.53033, 404.995423, 16.280084)" fill="none" stroke-linejoin="miter" d="M 0.00173168 0.000467138 L 732.969438 0.000467138 L 732.969438 732.968173 L 0.00173168 732.968173 Z M 0.00173168 0.000467138 " stroke="#ffffff" stroke-width="18" stroke-opacity="1" stroke-miterlimit="4"/></g></g></g></g><g fill="#ffffff" fill-opacity="1"><g transform="translate(140.044597, 445.740767)"><g><path d="M 15.847656 -78.125 L 8.371094 -78.125 L 8.371094 0 L 15.847656 0 C 35.601562 0 42.96875 -20.421875 42.96875 -40.179688 C 42.96875 -63.726562 32.476562 -78.125 15.847656 -78.125 Z M 35.9375 -40.179688 C 35.9375 -17.632812 29.351562 -6.695312 15.625 -6.585938 L 15.179688 -6.585938 L 15.179688 -71.652344 L 16.519531 -71.652344 C 27.566406 -71.539062 35.9375 -61.605469 35.9375 -40.179688 Z M 35.9375 -40.179688 "/></g></g></g><g fill="#ffffff" fill-opacity="1"><g transform="translate(199.976763, 445.740767)"><g><path d="M 35.601562 -12.164062 L 38.058594 0 L 44.867188 0 L 28.234375 -78.125 L 19.976562 -78.125 L 4.242188 0 L 10.824219 0 L 17.074219 -32.367188 Z M 33.257812 -23.882812 L 18.636719 -39.84375 L 24.105469 -68.191406 Z M 33.257812 -23.882812 "/></g></g></g><g fill="#ffffff" fill-opacity="1"><g transform="translate(262.475868, 445.740767)"><g><path d="M 22.320312 -37.164062 L 38.726562 1.003906 L 44.867188 -2.121094 L 27.230469 -43.078125 L 32.253906 -49.21875 C 38.726562 -57.140625 41.183594 -60.265625 41.183594 -66.183594 C 41.183594 -73.660156 36.496094 -78.125 26.5625 -78.125 L 8.59375 -78.125 L 8.59375 0 L 15.402344 0 L 15.402344 -28.792969 Z M 15.402344 -37.945312 L 15.402344 -71.652344 L 26.671875 -71.652344 C 31.585938 -71.652344 34.152344 -69.863281 34.152344 -65.847656 C 34.152344 -61.71875 33.035156 -59.484375 28.234375 -53.570312 Z M 15.402344 -37.945312 "/></g></g></g><g fill="#ffffff" fill-opacity="1"><g transform="translate(324.082125, 445.740767)"><g><path d="M 19.53125 -52.007812 L 39.0625 0.78125 L 45.535156 -2.121094 L 24.441406 -58.257812 L 38.058594 -75.558594 L 33.257812 -79.574219 L 15.402344 -56.027344 L 15.402344 -78.125 L 8.59375 -78.125 L 8.59375 0 L 15.402344 0 L 15.402344 -46.875 Z M 19.53125 -52.007812 "/></g></g></g><g fill="#ffffff" fill-opacity="1"><g transform="translate(386.469624, 445.740767)"><g/></g></g><g fill="#ffffff" fill-opacity="1"><g transform="translate(416.826335, 445.740767)"><g><path d="M 23.4375 -44.867188 C 17.523438 -50.78125 12.835938 -56.027344 12.722656 -63.839844 C 12.613281 -69.308594 14.957031 -72.765625 19.085938 -72.765625 C 22.210938 -72.765625 23.773438 -71.316406 26.003906 -66.738281 L 32.476562 -69.417969 C 29.351562 -76.5625 25.445312 -79.6875 19.085938 -79.6875 C 11.71875 -79.6875 5.691406 -73.660156 5.804688 -63.726562 C 5.914062 -53.125 11.496094 -46.316406 18.972656 -39.0625 C 26.449219 -31.808594 29.464844 -27.230469 29.464844 -19.308594 C 29.464844 -14.621094 28.347656 -5.804688 18.972656 -5.804688 C 14.285156 -5.804688 11.496094 -7.144531 7.699219 -12.386719 L 1.675781 -9.039062 C 6.363281 -2.007812 10.824219 1.117188 18.636719 1.117188 C 29.242188 1.117188 36.382812 -7.476562 36.382812 -20.089844 C 36.382812 -31.027344 30.804688 -37.5 23.4375 -44.867188 Z M 23.4375 -44.867188 "/></g></g></g><g fill="#ffffff" fill-opacity="1"><g transform="translate(468.946108, 445.740767)"><g><path d="M 15.402344 -6.585938 L 15.402344 -78.125 L 8.59375 -78.125 L 8.59375 0 L 34.484375 0 L 34.484375 -6.585938 Z M 15.402344 -6.585938 "/></g></g></g><g fill="#ffffff" fill-opacity="1"><g transform="translate(518.945395, 445.740767)"><g><path d="M 35.601562 -12.164062 L 38.058594 0 L 44.867188 0 L 28.234375 -78.125 L 19.976562 -78.125 L 4.242188 0 L 10.824219 0 L 17.074219 -32.367188 Z M 33.257812 -23.882812 L 18.636719 -39.84375 L 24.105469 -68.191406 Z M 33.257812 -23.882812 "/></g></g></g><g fill="#ffffff" fill-opacity="1"><g transform="translate(581.444505, 445.740767)"><g><path d="M 22.878906 -71.652344 L 36.828125 -71.652344 L 36.828125 -78.125 L 2.121094 -78.125 L 2.121094 -71.652344 L 16.070312 -71.652344 L 16.070312 0 L 22.878906 0 Z M 22.878906 -71.652344 "/></g></g></g><g fill="#ffffff" fill-opacity="1"><g transform="translate(634.010715, 445.740767)"><g><path d="M 8.59375 -78.125 L 8.59375 0 L 32.589844 0 L 32.589844 -6.585938 L 15.402344 -6.585938 L 15.402344 -52.121094 L 26.003906 -52.121094 L 26.003906 -58.144531 L 15.402344 -58.144531 L 15.402344 -71.652344 L 32.589844 -71.652344 L 32.589844 -78.125 Z M 8.59375 -78.125 "/></g></g></g><g fill="#ffffff" fill-opacity="1"><g transform="translate(232.906941, 505.133003)"><g><path d="M 3.957031 -42.171875 L 2.007812 -42.171875 L 2.007812 -32.191406 L 3.484375 -32.191406 L 3.957031 -34.847656 C 3.957031 -38.570312 6.617188 -40.695312 10.21875 -40.695312 L 11.046875 -40.695312 L 11.046875 -1.59375 L 8.742188 -1.59375 L 8.742188 0 L 19.375 0 L 19.375 -1.59375 L 17.128906 -1.59375 L 17.128906 -40.695312 L 17.957031 -40.695312 C 21.5 -40.695312 24.15625 -38.570312 24.15625 -34.847656 L 24.808594 -32.191406 L 26.105469 -32.191406 L 26.105469 -42.171875 Z M 3.957031 -42.171875 "/></g></g></g><g fill="#ffffff" fill-opacity="1"><g transform="translate(272.892632, 505.133003)"><g><path d="M 21.382812 -2.65625 L 21.382812 -23.566406 C 21.382812 -26.816406 19.195312 -29.886719 16.183594 -29.886719 C 13.527344 -29.886719 11.871094 -28.824219 10.75 -27.703125 C 10.101562 -27.050781 9.628906 -26.34375 9.273438 -25.574219 L 9.273438 -41.34375 C 9.273438 -42.113281 8.742188 -43.117188 7.558594 -43.117188 C 6.910156 -43.117188 5.964844 -42.761719 5.199219 -42.347656 C 4.726562 -42.171875 4.253906 -41.9375 3.78125 -41.640625 L 1.179688 -40.398438 L 1.773438 -39.277344 L 3.839844 -40.046875 L 3.839844 -1.121094 L 1.535156 -1.121094 L 1.535156 -0.0585938 L 11.695312 -0.0585938 L 11.695312 -1.121094 L 9.273438 -1.121094 L 9.273438 -22.503906 C 9.746094 -24.335938 11.339844 -27.289062 13.464844 -27.289062 C 14.648438 -27.289062 15.949219 -26.105469 15.949219 -23.921875 L 15.949219 -4.195312 C 15.949219 -1.121094 17.425781 0.355469 19.253906 0.355469 C 21.144531 0.355469 22.621094 0 23.742188 -0.472656 L 23.566406 -1.652344 C 23.273438 -1.59375 23.035156 -1.535156 22.859375 -1.535156 C 21.972656 -1.535156 21.382812 -1.949219 21.382812 -2.65625 Z M 21.382812 -2.65625 "/></g></g></g><g fill="#ffffff" fill-opacity="1"><g transform="translate(310.102543, 505.133003)"><g><path d="M 19.078125 -17.304688 L 19.078125 -17.542969 C 18.664062 -26.519531 15.886719 -29.886719 10.925781 -29.886719 C 5.078125 -29.886719 1.359375 -23.390625 1.359375 -14.707031 C 1.359375 -5.316406 5.375 0.589844 10.925781 0.589844 L 11.988281 0.589844 C 15.949219 0.589844 19.019531 -1.710938 19.019531 -5.433594 L 17.1875 -5.433594 C 16.714844 -2.421875 14.882812 -0.648438 12.523438 -0.648438 C 8.976562 -0.648438 7.265625 -4.546875 7.265625 -16.007812 L 19.078125 -16.007812 Z M 10.867188 -28.644531 C 13.40625 -28.644531 14.058594 -26.757812 14.058594 -17.542969 L 7.265625 -17.542969 C 7.441406 -26.105469 8.683594 -28.644531 10.867188 -28.644531 Z M 10.867188 -28.644531 "/></g></g></g><g fill="#ffffff" fill-opacity="1"><g transform="translate(343.237381, 505.133003)"><g><path d="M 21.734375 -4.253906 C 21.675781 -4.074219 21.617188 -3.898438 21.5 -3.722656 C 21.324219 -3.367188 20.910156 -3.191406 20.316406 -3.191406 C 19.3125 -3.191406 18.78125 -4.132812 18.78125 -5.257812 L 18.839844 -22.5625 C 18.839844 -26.519531 16.359375 -29.886719 11.046875 -29.886719 C 6.023438 -29.886719 3.128906 -27.347656 3.128906 -24.097656 C 3.128906 -22.679688 4.3125 -21.5 5.730469 -21.5 C 7.324219 -21.5 8.445312 -22.679688 8.445312 -24.097656 C 8.445312 -25.457031 7.621094 -26.402344 6.261719 -26.636719 C 6.734375 -27.761719 8.152344 -28.585938 9.863281 -28.585938 C 11.929688 -28.585938 13.40625 -27.050781 13.40625 -22.800781 L 13.40625 -17.542969 C 8.917969 -17.246094 1.476562 -14.351562 1.476562 -7.207031 C 1.476562 -1.59375 4.3125 0.53125 7.558594 0.53125 C 9.390625 0.53125 11.046875 -0.472656 12.167969 -1.476562 C 12.816406 -2.066406 13.464844 -2.71875 14 -3.484375 C 14 -3.542969 14 -3.542969 14.058594 -3.601562 C 14.117188 -3.660156 14.234375 -3.660156 14.351562 -3.601562 C 14.472656 -2.835938 14.707031 -2.125 15.003906 -1.535156 C 15.535156 -0.414062 16.539062 0.53125 18.367188 0.53125 C 20.730469 0.53125 22.917969 -0.945312 22.917969 -4.253906 Z M 10.160156 -2.539062 C 8.800781 -2.539062 7.324219 -3.898438 7.324219 -8.445312 C 7.324219 -14 10.867188 -15.949219 13.40625 -16.125 L 13.347656 -5.257812 C 12.816406 -4.015625 11.519531 -2.539062 10.160156 -2.539062 Z M 10.160156 -2.539062 "/></g></g></g><g fill="#ffffff" fill-opacity="1"><g transform="translate(378.734574, 505.133003)"><g><path d="M 9.273438 -37.507812 L 6.023438 -36.324219 L 6.023438 -36.089844 C 6.023438 -31.363281 3.011719 -29.414062 1.179688 -29.414062 L 1.179688 -27.878906 L 3.898438 -27.878906 L 3.898438 -6.734375 C 3.898438 -2.71875 5.671875 0.648438 8.800781 0.648438 C 10.453125 0.648438 15.535156 0 15.535156 -6.910156 L 14.472656 -6.910156 C 14.472656 -5.199219 13.40625 -2.066406 10.867188 -2.066406 C 9.863281 -2.066406 9.273438 -3.25 9.273438 -4.84375 L 9.273438 -27.878906 L 14.589844 -27.878906 L 14.589844 -29.414062 L 9.273438 -29.414062 Z M 9.273438 -37.507812 "/></g></g></g><g fill="#ffffff" fill-opacity="1"><g transform="translate(408.325859, 505.133003)"><g><path d="M 18.605469 -29 C 18.015625 -29.589844 17.304688 -29.886719 16.539062 -29.886719 L 16.480469 -29.886719 C 13.703125 -29.886719 10.867188 -28.585938 9.390625 -25.574219 L 9.390625 -27.996094 C 9.390625 -28.765625 8.800781 -29.652344 7.621094 -29.652344 C 6.96875 -29.652344 6.144531 -29.355469 5.375 -28.941406 L 3.957031 -28.234375 L 1.300781 -26.816406 L 1.832031 -25.929688 L 3.957031 -26.695312 L 3.957031 -1.121094 L 1.832031 -1.121094 L 1.832031 0 L 11.753906 0 L 11.753906 -1.121094 L 9.390625 -1.121094 L 9.390625 -22.503906 C 9.390625 -22.976562 10.21875 -25.929688 13.527344 -27.523438 L 13.527344 -26.816406 C 13.527344 -25.160156 14.824219 -23.863281 16.480469 -23.863281 C 18.308594 -23.863281 19.492188 -25.160156 19.492188 -26.816406 C 19.492188 -27.761719 19.195312 -28.46875 18.605469 -29 Z M 18.605469 -29 "/></g></g></g><g fill="#ffffff" fill-opacity="1"><g transform="translate(441.165388, 505.133003)"><g><path d="M 19.078125 -17.304688 L 19.078125 -17.542969 C 18.664062 -26.519531 15.886719 -29.886719 10.925781 -29.886719 C 5.078125 -29.886719 1.359375 -23.390625 1.359375 -14.707031 C 1.359375 -5.316406 5.375 0.589844 10.925781 0.589844 L 11.988281 0.589844 C 15.949219 0.589844 19.019531 -1.710938 19.019531 -5.433594 L 17.1875 -5.433594 C 16.714844 -2.421875 14.882812 -0.648438 12.523438 -0.648438 C 8.976562 -0.648438 7.265625 -4.546875 7.265625 -16.007812 L 19.078125 -16.007812 Z M 10.867188 -28.644531 C 13.40625 -28.644531 14.058594 -26.757812 14.058594 -17.542969 L 7.265625 -17.542969 C 7.441406 -26.105469 8.683594 -28.644531 10.867188 -28.644531 Z M 10.867188 -28.644531 "/></g></g></g><g fill="#ffffff" fill-opacity="1"><g transform="translate(474.300225, 505.133003)"><g/></g></g><g fill="#ffffff" fill-opacity="1"><g transform="translate(497.21783, 505.133003)"><g><path d="M 8.328125 -24.867188 C 8.328125 -38.804688 9.804688 -40.8125 13.230469 -40.8125 C 15.59375 -40.8125 16.480469 -37.859375 16.773438 -34.847656 L 17.070312 -30.300781 L 19.492188 -30.300781 L 19.492188 -42.761719 L 18.722656 -42.761719 L 17.011719 -40.519531 C 16.953125 -40.519531 16.832031 -40.339844 16.597656 -40.339844 C 16.539062 -40.339844 16.421875 -40.398438 16.359375 -40.460938 L 16.242188 -40.578125 C 15.949219 -40.992188 15.59375 -41.34375 15.121094 -41.699219 C 14.234375 -42.230469 12.996094 -42.820312 11.105469 -42.820312 C 3.957031 -42.820312 1.832031 -35.558594 1.832031 -21.675781 C 2.007812 -5.90625 5.789062 0.589844 11.636719 0.589844 C 18.488281 0.589844 20.257812 -5.199219 20.257812 -10.21875 L 17.835938 -10.21875 C 17.835938 -6.734375 16.242188 -1.242188 13.113281 -1.242188 C 9.507812 -1.242188 8.328125 -5.789062 8.328125 -16.890625 Z M 8.328125 -24.867188 "/></g></g></g><g fill="#ffffff" fill-opacity="1"><g transform="translate(531.238556, 505.133003)"><g><path d="M 10.984375 -29.945312 C 5.136719 -29.945312 1.359375 -23.566406 1.359375 -14.765625 C 1.359375 -5.078125 5.375 0.589844 10.984375 0.589844 C 16.953125 0.589844 20.730469 -4.902344 20.730469 -14.765625 C 20.730469 -24.453125 16.421875 -29.945312 10.984375 -29.945312 Z M 10.984375 -0.589844 C 7.914062 -0.589844 7.265625 -4.015625 7.265625 -14.410156 C 7.265625 -25.339844 7.914062 -28.585938 10.984375 -28.585938 C 14.058594 -28.585938 14.53125 -25.339844 14.53125 -14.410156 C 14.53125 -2.71875 13.644531 -0.589844 10.984375 -0.589844 Z M 10.984375 -0.589844 "/></g></g></g><g fill="#ffffff" fill-opacity="1"><g transform="translate(565.908938, 505.133003)"><g><path d="M 1.710938 -2.835938 C 1.710938 -0.945312 3.25 0.589844 5.136719 0.589844 C 7.027344 0.589844 8.5625 -0.945312 8.5625 -2.835938 C 8.5625 -4.726562 7.207031 -6.261719 5.136719 -6.261719 C 3.308594 -6.261719 1.710938 -4.726562 1.710938 -2.835938 Z M 1.710938 -2.835938 "/></g></g></g><g fill="#ffffff" fill-opacity="1"><g transform="translate(363.48101, 347.474363)"><g><path d="M 13.734375 -43.015625 L 22.113281 -43.015625 L 22.113281 -46.902344 L 1.273438 -46.902344 L 1.273438 -43.015625 L 9.648438 -43.015625 L 9.648438 0 L 13.734375 0 Z M 13.734375 -43.015625 "/></g></g></g><g fill="#ffffff" fill-opacity="1"><g transform="translate(391.889309, 347.474363)"><g><path d="M 18.695312 -31.558594 L 18.695312 0 L 22.78125 0 L 22.78125 -46.902344 L 18.695312 -46.902344 L 18.695312 -35.175781 L 9.246094 -35.175781 L 9.246094 -46.902344 L 5.160156 -46.902344 L 5.160156 0 L 9.246094 0 L 9.246094 -31.558594 Z M 18.695312 -31.558594 "/></g></g></g><g fill="#ffffff" fill-opacity="1"><g transform="translate(424.920427, 347.474363)"><g><path d="M 5.160156 -46.902344 L 5.160156 0 L 19.566406 0 L 19.566406 -3.953125 L 9.246094 -3.953125 L 9.246094 -31.292969 L 15.613281 -31.292969 L 15.613281 -34.910156 L 9.246094 -34.910156 L 9.246094 -43.015625 L 19.566406 -43.015625 L 19.566406 -46.902344 Z M 5.160156 -46.902344 "/></g></g></g></svg>